<?xml version="1.0" encoding="UTF-8"?>
<!DOCTYPE svg PUBLIC "-//W3C//DTD SVG 1.1//EN" "http://www.w3.org/Graphics/SVG/1.1/DTD/svg11.dtd">
<!-- Creator: CorelDRAW 2021 (64 Bit) -->
<svg xmlns="http://www.w3.org/2000/svg" xml:space="preserve" width="1249.96mm" height="1249.96mm" version="1.1" style="shape-rendering:geometricPrecision; text-rendering:geometricPrecision; image-rendering:optimizeQuality; fill-rule:evenodd; clip-rule:evenodd"
viewBox="0 0 13899.52 13899.52"
 xmlns:xlink="http://www.w3.org/1999/xlink"
 xmlns:xodm="http://www.corel.com/coreldraw/odm/2003">
 <defs>
  <style type="text/css">
   <![CDATA[
    .fil0 {fill:white;fill-rule:nonzero}
   ]]>
  </style>
 </defs>
 <g id="Camada_x0020_1">
  <metadata id="CorelCorpID_0Corel-Layer"/>
  <g id="_1719568274128">
   <g>
    <path class="fil0" d="M6949.76 0c-1843.17,0 -3610.86,732.23 -4914.18,2035.58 -1303.32,1303.32 -2035.58,3071.06 -2035.58,4914.18 0,1843.12 732.23,3610.86 2035.58,4914.18 1303.32,1303.32 3071.06,2035.58 4914.18,2035.58 1843.12,0 3610.86,-732.23 4914.18,-2035.58 1303.32,-1303.32 2035.58,-3071.06 2035.58,-4914.18 0,-1843.12 -732.23,-3610.86 -2035.58,-4914.18 -1303.32,-1303.32 -3071.06,-2035.58 -4914.18,-2035.58zm0 13168.02c-1649.2,0 -3230.86,-655.11 -4396.86,-1821.27 -1166.16,-1166.16 -1821.27,-2747.76 -1821.27,-4396.86 0,-1649.1 655.11,-3230.86 1821.27,-4396.86 1166.16,-1166.16 2747.76,-1821.27 4396.86,-1821.27 1649.1,0 3230.86,655.11 4396.86,1821.27 1166.16,1166.16 1821.27,2747.76 1821.27,4396.86 0,1649.1 -655.11,3230.86 -1821.27,4396.86 -1166.16,1166.16 -2747.76,1821.27 -4396.86,1821.27z"/>
    <polygon class="fil0" points="7315.64,3291.95 6584.01,3291.95 6584.01,6583.95 3292,6583.94 3292,7315.58 6584.01,7315.59 6584.01,10607.6 7315.64,10607.59 7315.64,7315.58 10607.65,7315.59 10607.65,6583.95 7315.64,6583.94 "/>
   </g>
  </g>
 </g>
</svg>
