<?xml version="1.0" encoding="UTF-8"?>
<!DOCTYPE svg PUBLIC "-//W3C//DTD SVG 1.1//EN" "http://www.w3.org/Graphics/SVG/1.1/DTD/svg11.dtd">
<!-- Creator: CorelDRAW 2021 (64 Bit) -->
<svg xmlns="http://www.w3.org/2000/svg" xml:space="preserve" width="187.065mm" height="184.384mm" version="1.1" style="shape-rendering:geometricPrecision; text-rendering:geometricPrecision; image-rendering:optimizeQuality; fill-rule:evenodd; clip-rule:evenodd"
viewBox="0 0 16099.09 15868.37"
 xmlns:xlink="http://www.w3.org/1999/xlink"
 xmlns:xodm="http://www.corel.com/coreldraw/odm/2003">
 <defs>
  <style type="text/css">
   <![CDATA[
    .fil0 {fill:white;fill-rule:nonzero}
   ]]>
  </style>
 </defs>
 <g id="Camada_x0020_1">
  <metadata id="CorelCorpID_0Corel-Layer"/>
  <g id="_1719076434224">
   <g>
    <path class="fil0" d="M15744.78 1612.79l-3439.56 0 0 -1258.54c0,-195.69 -158.68,-354.25 -354.25,-354.25 -195.69,0 -354.25,158.57 -354.25,354.25l0 1258.54 -6910.08 0 0 -1258.54c0,-195.69 -158.57,-354.25 -354.13,-354.25 -195.69,0 -354.25,158.57 -354.25,354.25l0 1258.54 -3624.15 0c-195.57,0 -354.13,158.57 -354.13,354.25l0 13547.21c-0.12,93.93 37.24,184.06 103.65,250.47 66.41,66.41 156.55,103.77 250.47,103.65l15390.71 0c93.93,0.12 184.06,-37.24 250.47,-103.65 66.53,-66.41 103.77,-156.55 103.77,-250.47l0 -13547.21c0,-94.05 -37.36,-184.06 -103.77,-250.59 -66.41,-66.41 -156.55,-103.65 -250.47,-103.65l-0.06 0zm-11766.56 708.37l0 2303.01c0,195.69 158.57,354.25 354.25,354.25 195.57,0 354.13,-158.57 354.13,-354.25l0 -2303.01 6910.08 0 0 2303.01c0,195.69 158.57,354.25 354.25,354.25 195.57,0 354.25,-158.57 354.25,-354.25l0 -2303.01 3085.55 0 -0.12 4037.66 -14682.09 0 0 -4037.66 3269.72 0zm-3269.84 12838.89l0 -8092.62 14682.09 0 0 8092.62 -14682.09 0z"/>
    <path class="fil0" d="M11269.32 8203.8l-3447.75 4053.75 -2162.95 -2402.28c-130.81,-145.4 -354.74,-157.14 -500.13,-26.21 -145.4,130.81 -157.14,354.74 -26.33,500.13l2433.83 2703.28c67.13,74.6 162.84,117.17 263.17,117.29l5.09 -0.01c102.11,-1.54 198.65,-47.08 264.71,-124.88l3710.06 -4362.21c126.54,-148.96 108.27,-372.29 -40.56,-498.94 -148.96,-126.67 -372.29,-108.64 -499.07,40.2l-0.08 -0.12z"/>
   </g>
  </g>
 </g>
</svg>
