<?xml version="1.0" encoding="UTF-8"?>
<!DOCTYPE svg PUBLIC "-//W3C//DTD SVG 1.1//EN" "http://www.w3.org/Graphics/SVG/1.1/DTD/svg11.dtd">
<!-- Creator: CorelDRAW 2021 (64 Bit) -->
<svg xmlns="http://www.w3.org/2000/svg" xml:space="preserve" width="171.133mm" height="116.486mm" version="1.1" style="shape-rendering:geometricPrecision; text-rendering:geometricPrecision; image-rendering:optimizeQuality; fill-rule:evenodd; clip-rule:evenodd"
viewBox="0 0 17113.06 11648.44"
 xmlns:xlink="http://www.w3.org/1999/xlink"
 xmlns:xodm="http://www.corel.com/coreldraw/odm/2003">
 <defs>
  <style type="text/css">
   <![CDATA[
    .fil0 {fill:white;fill-rule:nonzero}
   ]]>
  </style>
 </defs>
 <g id="Camada_x0020_1">
  <metadata id="CorelCorpID_0Corel-Layer"/>
  <g id="_1719185448416">
   <path class="fil0" d="M16610.1 5393.21l-11864.83 0c-237.85,0 -431.33,193.48 -431.33,431.33 0,237.86 193.48,431.33 431.33,431.33l11863.77 0c237.85,0 431.33,-193.48 431.33,-431.33 0,-237.86 -192.65,-431.33 -430.48,-431.33l0.21 0z"/>
   <path class="fil0" d="M16681.72 1150.75l-11936.45 0c-237.85,0 -431.33,193.48 -431.33,431.33 0,237.85 193.48,431.33 431.33,431.33l11936.45 0.01c237.85,0 431.33,-193.48 431.33,-431.33 0.14,-237.85 -193.34,-431.33 -431.19,-431.33l-0.14 -0.01z"/>
   <path class="fil0" d="M16681.72 9778.89l-11936.45 0c-237.85,0 -431.33,193.48 -431.33,431.33 0,237.85 193.48,431.33 431.33,431.33l11936.45 0c237.85,0 431.33,-193.48 431.33,-431.33 0.14,-237.85 -193.34,-431.33 -431.19,-431.33l-0.14 0z"/>
   <path class="fil0" d="M1509.62 0c-832.19,0 -1509.62,677.43 -1509.62,1509.62 0,833 677.43,1509.62 1509.62,1509.62 833,0 1509.62,-677.43 1509.62,-1509.62 0.83,-832.19 -676.62,-1509.62 -1509.62,-1509.62zm0 2157.42c-357.19,0 -646.98,-290.63 -646.98,-646.98 0,-356.38 290.63,-646.98 646.98,-646.98 356.38,0 646.98,290.63 646.98,646.98 0.83,356.38 -289.66,646.98 -646.98,646.98z"/>
   <path class="fil0" d="M1509.62 4315.13c-832.19,0 -1509.62,677.43 -1509.62,1509.62 0,832.19 677.43,1509.62 1509.62,1509.62 833,0 1509.62,-677.43 1509.62,-1509.62 0,-832.19 -676.62,-1509.62 -1509.62,-1509.62zm0 2156.61c-357.19,0 -646.98,-290.63 -646.98,-646.98 0,-356.36 290.63,-646.98 646.98,-646.98 356.48,0 647.8,289.8 647.8,646.98 0,357.19 -290.49,646.98 -647.8,646.98z"/>
   <path class="fil0" d="M1509.62 8629.2c-832.19,0 -1509.62,677.43 -1509.62,1509.62 0,832.19 677.43,1509.62 1509.62,1509.62 833,0 1509.62,-677.43 1509.62,-1509.62 0.83,-832.19 -676.62,-1509.62 -1509.62,-1509.62zm0 2156.6c-357.19,0 -646.98,-290.63 -646.98,-646.98 0,-357.19 290.63,-646.98 646.98,-646.98 356.38,0 646.98,290.63 646.98,646.98 0.83,357.33 -289.66,646.98 -646.98,646.98z"/>
  </g>
 </g>
</svg>
