<?xml version="1.0" encoding="UTF-8"?>
<!DOCTYPE svg PUBLIC "-//W3C//DTD SVG 1.1//EN" "http://www.w3.org/Graphics/SVG/1.1/DTD/svg11.dtd">
<!-- Creator: CorelDRAW 2021 (64 Bit) -->
<svg xmlns="http://www.w3.org/2000/svg" xml:space="preserve" width="204.574mm" height="221.658mm" version="1.1" style="shape-rendering:geometricPrecision; text-rendering:geometricPrecision; image-rendering:optimizeQuality; fill-rule:evenodd; clip-rule:evenodd"
viewBox="0 0 20448.06 22155.71"
 xmlns:xlink="http://www.w3.org/1999/xlink"
 xmlns:xodm="http://www.corel.com/coreldraw/odm/2003">
 <defs>
  <style type="text/css">
   <![CDATA[
    .fil1 {fill:#FA6400}
    .fil2 {fill:#FA6400;fill-rule:nonzero}
    .fil0 {fill:white;fill-rule:nonzero}
   ]]>
  </style>
 </defs>
 <g id="Camada_x0020_1">
  <metadata id="CorelCorpID_0Corel-Layer"/>
  <g id="_1719563207520">
   <path class="fil0" d="M6822.32 12908.2l0 -2022.3c0,-1221.25 -958.61,-1575.81 -1825.32,-1575.81 -853.56,0 -1812.18,354.56 -1812.18,1575.81l0 6565.88c0,1221.26 958.62,1575.81 1812.18,1575.81 866.7,0 1825.32,-354.55 1825.32,-1575.81l0 -2140.47 -1391.96 0 0 2022.29c0,472.74 -144.44,577.8 -420.22,577.8 -288.9,0 -433.35,-105.05 -433.35,-577.8l0 -6329.51c0,-472.74 144.45,-577.8 433.35,-577.8 275.77,0 420.22,105.05 420.22,577.8l0 1904.11 1391.96 0zm2076.44 2179.87l341.42 -3887 91.93 0 288.9 3887 -722.25 0zm-1694 3755.67l1260.64 0 302.03 -2534.42 984.88 0 262.63 2534.42 1405.11 0 -1063.67 -9349.81 -2087.96 0 -1063.66 9349.81zm5989.69 0l0 -3584.96c1483.89,78.78 2258.67,-393.96 2245.53,-1917.24l0 -2022.29c39.39,-1247.52 -643.46,-1825.32 -2179.87,-1825.32l-1457.62 0 0 9349.81 1391.96 0zm0 -8233.61c551.54,-39.39 853.57,26.27 853.57,892.96l0 2219.27c-39.4,433.35 -446.48,420.22 -853.57,420.22l0 -3532.45zm4308.84 4688.04l-1391.96 0 0 2153.61c0,1221.26 958.61,1575.81 1812.18,1575.81 866.69,0 1825.32,-354.55 1825.32,-1575.81l0 -1654.6c0,-945.49 -2245.53,-2967.77 -2245.53,-3637.5l0 -1155.59c0,-472.74 144.45,-577.8 433.35,-577.8 275.76,0 420.21,105.05 420.21,577.8l0 1851.58 1391.97 0 0 -1969.77c0,-1221.25 -958.62,-1575.81 -1825.32,-1575.81 -853.57,0 -1812.18,354.56 -1812.18,1575.81l0 1339.44c0,1523.28 2245.52,2810.21 2245.52,4123.38l0 984.88c0,472.74 -144.44,577.8 -420.21,577.8 -288.9,0 -433.35,-105.05 -433.35,-577.8l0 -2035.42z"/>
   <path class="fil0" d="M3573.93 21448.79c0,76.58 12.27,154.63 36.82,234.17 24.54,79.52 69.22,155.12 134.02,226.8 64.8,71.68 158.08,130.59 279.83,176.73 121.74,46.15 272.95,69.23 453.6,69.23 68.73,0 146.79,-7.86 234.17,-23.57 87.39,-15.7 177.23,-46.63 269.52,-92.78 92.3,-46.15 170.35,-116.85 234.17,-212.08 63.82,-95.24 95.73,-216.49 95.73,-363.77 0,-90.33 -14.72,-168.38 -44.18,-234.17 -29.46,-65.78 -69.71,-119.78 -120.76,-162.01 -51.06,-42.21 -108,-76.58 -170.84,-103.09 -62.83,-26.51 -135.5,-49.58 -217.97,-69.22l-515.47 -126.65c-29.45,-5.9 -55.95,-13.26 -79.52,-22.1 -23.57,-8.84 -46.64,-21.1 -69.22,-36.81 -22.58,-15.71 -40.75,-36.82 -54.5,-63.33 -13.74,-26.51 -20.62,-59.4 -20.62,-98.67 0,-45.17 10.81,-84.44 32.41,-117.82 21.6,-33.39 50.07,-59.9 85.42,-79.53 35.34,-19.64 74.62,-33.87 117.82,-42.71 43.2,-8.84 87.38,-13.25 132.55,-13.25 90.33,0 163.98,11.28 220.92,33.87 56.94,22.58 100.14,50.56 129.6,83.94 29.46,33.38 49.59,66.28 60.38,98.68 10.81,32.4 18.16,66.27 22.09,101.61l424.17 0c0,-72.66 -13.75,-147.76 -41.24,-225.34 -27.5,-77.56 -72.66,-151.2 -135.5,-220.91 -62.84,-69.71 -148.25,-126.66 -256.26,-170.84 -108,-44.19 -238.58,-66.28 -391.75,-66.28 -161.03,0 -296.02,21.6 -405.01,64.8 -108.98,43.2 -192.93,98.19 -251.84,164.95 -58.9,66.76 -99.65,135.99 -122.23,207.67 -22.59,71.68 -33.87,142.85 -33.87,213.55 0,109.96 18.16,201.77 54.49,275.4 36.33,73.64 84.93,131.56 145.8,173.79 60.88,42.21 126.17,74.62 195.88,97.2 69.72,22.58 161.52,47.62 275.41,75.12l226.81 53.02c135.49,31.43 233.18,64.31 293.08,98.67 59.89,34.36 89.84,88.86 89.84,163.48 0,53.03 -12.26,97.7 -36.81,134.03 -24.55,36.32 -57.93,64.8 -100.15,85.42 -42.22,20.61 -88.85,34.85 -139.92,42.71 -51.05,7.86 -106.03,11.78 -164.94,11.78 -90.33,0 -165.44,-11.29 -225.34,-33.88 -59.88,-22.58 -105.54,-51.55 -136.97,-86.89 -31.42,-35.34 -53.02,-71.68 -64.8,-108.98 -11.77,-37.31 -18.65,-74.62 -20.62,-111.93l-424.16 0zm4473.71 -1089.85l639.18 0 0 -374.09 -1720.19 0 0 374.09 639.19 0 0 1740.81 441.83 0 0 -1740.81zm2190.91 683.37c0,231.71 36.81,423.18 110.46,574.38 73.64,151.2 165.44,265.1 275.4,341.68 109.97,76.58 219.45,128.62 328.43,156.11 108.99,27.49 209.62,41.24 301.92,41.24 92.29,0 192.92,-13.75 301.91,-41.24 108.99,-27.49 218.46,-79.53 328.43,-156.11 109.97,-76.58 201.77,-190.48 275.4,-341.68 73.65,-151.2 110.47,-342.66 110.47,-574.38 0,-231.72 -36.82,-423.19 -110.47,-574.39 -73.64,-151.2 -165.43,-265.59 -275.4,-343.15 -109.97,-77.56 -219.44,-129.6 -328.43,-156.11 -108.99,-26.52 -209.62,-39.77 -301.91,-39.77 -92.3,0 -192.93,13.25 -301.92,39.77 -108.98,26.51 -218.46,78.54 -328.43,156.11 -109.96,77.56 -201.77,191.95 -275.4,343.15 -73.65,151.2 -110.46,342.66 -110.46,574.39zm441.83 0c0,-139.43 17.67,-258.23 53.03,-356.42 35.34,-98.19 81.49,-174.77 138.44,-229.74 56.94,-54.98 118.81,-94.27 185.57,-117.83 66.77,-23.57 132.55,-35.34 197.36,-35.34 66.77,0 133.04,11.77 198.82,35.34 65.78,23.56 127.15,62.84 184.1,117.83 56.95,54.97 103.09,131.56 138.45,229.74 35.34,98.19 53.02,216.99 53.02,356.42 0,139.42 -17.67,257.73 -53.02,354.93 -35.35,97.21 -81.49,173.79 -138.45,229.75 -56.94,55.97 -118.32,95.74 -184.1,119.3 -65.78,23.57 -132.05,35.35 -198.82,35.35 -64.81,0 -130.59,-11.78 -197.36,-35.35 -66.76,-23.56 -128.62,-63.32 -185.57,-119.3 -56.94,-55.96 -103.09,-132.55 -138.44,-229.75 -35.35,-97.2 -53.03,-215.51 -53.03,-354.93zm3445.72 1057.45l432.99 0 0 -827.7 456.56 0c82.47,0 146.78,7.37 192.93,22.09 46.15,14.73 80.01,37.31 101.62,67.75 21.59,30.44 35.34,69.23 41.23,116.35 5.89,47.13 8.84,111.94 8.84,194.41 0,104.07 3.93,187.53 11.78,250.38 7.86,62.83 19.64,121.74 35.34,176.73l488.96 0 0 -55.96c-45.16,-17.68 -72.16,-50.57 -81,-98.68 -8.84,-48.1 -13.24,-155.62 -13.24,-322.53 0,-96.22 -5.41,-175.26 -16.2,-237.11 -10.81,-61.85 -27.49,-110.95 -50.08,-147.28 -22.58,-36.32 -49.58,-65.29 -81,-86.89 -31.42,-21.6 -71.68,-43.2 -120.76,-64.8 102.11,-35.34 182.13,-98.67 240.06,-189.99 57.92,-91.31 86.89,-195.87 86.89,-313.7 0,-54.97 -9.33,-115.86 -27.98,-182.62 -18.66,-66.77 -52.04,-131.57 -100.14,-194.41 -48.12,-62.83 -116.85,-115.37 -206.2,-157.59 -89.34,-42.22 -199.8,-63.33 -331.37,-63.33l-1069.23 0 0 2114.9zm432.99 -1184.11l0 -565.54 550.82 0c60.87,0 111.93,8.34 153.17,25.04 41.23,16.69 73.15,39.27 95.73,67.74 22.58,28.48 38.29,57.93 47.13,88.37 8.84,30.44 13.25,62.35 13.25,95.74 0,102.1 -27.49,175.75 -82.47,220.91 -54.98,45.17 -141.39,67.75 -259.21,67.75l-518.41 0zm4750.58 -930.79l-1555.24 0 0 2114.9 1605.32 0 0 -374.09 -1172.32 0 0 -547.87 1030.93 0 0 -374.08 -1030.93 0 0 -444.78 1122.25 0 0 -374.09z"/>
   <path class="fil1" d="M6799.39 6611.47c1289.51,-400.09 5300.82,770.77 6740.79,1216.12 1747.66,540.51 2525.99,458.23 3841.58,1505.26 518.91,412.97 1318.36,-3.75 1658.64,442.49 100.6,131.93 185.62,254.3 287.81,385.68 179.07,230.15 204.49,550.66 226.92,861.27l222.52 11.33c52.52,-151.71 129.07,-288.28 267.88,-455.8 224.42,-270.85 402.72,-534.29 398.89,-963.54 -1.58,-178.05 7.85,-382.37 -5.19,-554.63 -49.63,-656.31 -369.72,-13.17 -78.02,-1570.89 114.44,-611.1 89.42,-1591.44 70.69,-2212.6 -10.97,-364.19 -204.94,-606.4 -375.29,-859.6 -111.1,-165.15 -308.27,-614.07 -370.17,-843.88l175.19 177.02c-116.11,-357.53 -543.82,-956.84 -824.66,-1283.41 -261.09,-303.61 -217.9,-196.15 -457.74,-349.02 -297.39,-189.55 -566.27,-408.14 -941.89,-496.18l1077.01 847.25c75.97,78.97 26.75,24.89 61,72.05 -619.16,-237.68 -1198.1,-643.71 -1844.79,-876.03 -492.51,-176.93 -1172.66,-658.88 -1696.33,-917.12 10.71,-7.83 30.38,-20.24 35.61,-24.39l39.91 -34.41c14.68,-41.42 85.95,17.84 -58.45,-68.75l-552.45 -307.51c-252.03,-137.69 -732.61,-102.98 -1015,-166.41 -137.7,-30.94 -127.23,-65.91 -234.7,-125.94 -151.95,-84.87 -2401.58,126.58 -2655.58,187.9 -661.02,159.58 -1006.93,93 -1167.09,138.9 -152.9,43.8 -417.75,116.64 -474.7,228.21 -81.12,158.89 129.64,-11.04 -61.54,187.2 -351.39,364.34 -1758.75,990.78 -2006.34,1456.14 148.23,-19.9 95.85,-31.02 257.03,-61.8 -159.36,620.65 -1403.08,1512.34 -1314.99,2046.36 36.59,-18.47 23.84,2.16 65.39,-48.53 76.04,-92.77 1294.5,-1851.53 1467.55,-2291.94 109.13,113.1 18.18,74.09 181.53,135.14 209.58,-125.89 604.93,-136.69 815.14,-264.71 175.11,-106.65 479.81,-248.62 610.66,-400.83 -338.04,-70.5 -314.16,82.84 -528.02,191.5 75.8,-177.32 792.98,-818.35 979.88,-861.56 391.48,-90.53 942.06,-147.32 1384.7,-160.6 502.02,-15.06 983.08,-20.65 1467.97,-22.79 1420.09,-6.25 613.96,-54.23 1399.79,279.5 479.35,203.59 884.37,472.02 1275.43,740.33 191.24,131.2 453.17,249.57 455.51,480.93 2.02,199.7 -54.53,559.12 -77.88,775.22 -114.01,1054.41 -61.33,1673.79 -191.37,2738.41 -507.08,-99.75 -2387.53,-115.25 -2749.54,34.75 137.57,114.75 1641.26,699.35 1971.72,766.14 1069.44,216.19 2645.42,1509.38 3522.95,2106.87 77.73,52.93 533.11,366.97 2148.84,1028.55 -117.44,440.49 -65.14,267.69 -318.07,605.06 -115.22,-327.08 -1697.89,-755.97 -1756.82,-1130.89 -43.77,-278.56 -1136.52,-668.73 -1379.25,-845.04 -1419.61,-1031.16 -3010.19,-1888.95 -4684.83,-2461.23 -7329.03,-2504.59 -18728.13,-2261.18 -7113.38,3613.73 426.65,-1687.57 -86.33,-2006.09 1825.58,-2599.29z"/>
   <path class="fil2" d="M9804.25 4143.13c-111.27,411.3 163.83,679.86 711.12,696.72 547.29,16.87 961.95,-230.42 1073.23,-641.73l256.49 -948.07 -719.74 -22.19 -252.72 934.13c-49.03,181.25 -120.28,193.11 -225.24,189.87 -104.97,-3.23 -168.67,-19.25 -119.64,-200.5l722.34 -2669.94c56.58,-209.14 148.48,-241.45 238.45,-238.68 89.96,2.77 163.01,40.17 106.42,249.31l-199.91 738.94 719.73 22.18 216.89 -801.68c111.27,-411.3 -163.82,-679.86 -711.12,-696.72 -547.29,-16.87 -961.95,230.43 -1073.22,641.73l-743.09 2746.62z"/>
  </g>
 </g>
</svg>
