<?xml version="1.0" encoding="UTF-8"?>
<!DOCTYPE svg PUBLIC "-//W3C//DTD SVG 1.1//EN" "http://www.w3.org/Graphics/SVG/1.1/DTD/svg11.dtd">
<!-- Creator: CorelDRAW 2021 (64 Bit) -->
<svg xmlns="http://www.w3.org/2000/svg" xml:space="preserve" width="140.967mm" height="193.566mm" version="1.1" style="shape-rendering:geometricPrecision; text-rendering:geometricPrecision; image-rendering:optimizeQuality; fill-rule:evenodd; clip-rule:evenodd"
viewBox="0 0 8205.39 11267.07"
 xmlns:xlink="http://www.w3.org/1999/xlink"
 xmlns:xodm="http://www.corel.com/coreldraw/odm/2003">
 <defs>
  <style type="text/css">
   <![CDATA[
    .fil0 {fill:white;fill-rule:nonzero}
   ]]>
  </style>
 </defs>
 <g id="Camada_x0020_1">
  <metadata id="CorelCorpID_0Corel-Layer"/>
  <g id="_1719541070368">
   <g>
    <path class="fil0" d="M7915.84 8995.72l-1799.16 -2132.5c620.76,-665.28 884.99,-1587.8 710.53,-2480.76 -174.38,-893 -766.27,-1648.3 -1591.66,-2031.23 -825.38,-382.86 -1784.33,-346.85 -2578.71,96.74 -794.44,443.65 -1328.09,1241.2 -1435.09,2144.82 -107,903.6 225.55,1803.66 894.38,2420.59 668.81,616.92 1592.78,875.92 2484.86,696.4l877.84 2666.6c151.04,379.42 458.74,674.9 844.01,810.47 385.18,135.64 810.14,97.94 1165.5,-103.23 355.35,-201.17 606.32,-546.26 688.31,-946.27 81.9,-400.09 -13.15,-816 -260.77,-1140.71l-0.04 -0.93zm-5879.62 -2946.07c-297.28,-532.05 -370.98,-1160.44 -204.94,-1746.86 166.04,-586.36 558.21,-1082.78 1090.26,-1380.06 532.13,-297.2 1160.44,-370.89 1746.86,-204.78 586.44,166.04 1082.78,558.29 1379.97,1090.42 297.2,532.05 370.83,1160.44 204.71,1746.78 -166.12,586.44 -558.35,1082.78 -1090.48,1379.97 -531.16,300.87 -1160.75,376.52 -1748.15,210.23 -587.32,-166.36 -1083.66,-561 -1378.21,-1095.69l-0.01 -0.01zm5610.62 3985.11c-52.3,244.26 -206.61,454.49 -423.93,577.7 -217.3,123.21 -476.96,147.67 -713.41,67.14 -236.45,-80.54 -427.3,-258.28 -524.27,-488.49l-868.38 -2637.65c211.84,-85.59 411.9,-197.88 595.25,-334.1l1781.28 2110.73 0.08 0.08c150.16,201.81 206.06,458.65 153.37,704.66l0.01 -0.07z"/>
    <path class="fil0" d="M2889.64 4025.36l2304.98 0c148.8,0 269.51,-120.64 269.51,-269.51 0,-148.87 -120.72,-269.51 -269.51,-269.51l-2304.98 0c-148.87,0 -269.51,120.64 -269.51,269.51 0,148.87 120.64,269.51 269.51,269.51z"/>
    <path class="fil0" d="M2889.64 5198.7l2304.98 0c148.8,0 269.51,-120.64 269.51,-269.51 0,-148.87 -120.72,-269.51 -269.51,-269.51l-2304.98 0c-148.87,0 -269.51,120.64 -269.51,269.51 0,148.87 120.64,269.51 269.51,269.51z"/>
    <path class="fil0" d="M5464.24 6102.42c0,-148.8 -120.72,-269.51 -269.51,-269.51l-2304.98 0c-148.87,0 -269.51,120.72 -269.51,269.51 0,148.87 120.64,269.51 269.51,269.51l2304.98 0c148.8,0 269.51,-120.64 269.51,-269.51z"/>
    <path class="fil0" d="M995.74 9216.88c-121.04,-0.08 -237.19,-48.29 -322.78,-133.87 -85.67,-85.67 -133.8,-201.74 -133.95,-322.86l0 -7764.27c0.08,-121.12 48.21,-237.27 133.87,-322.86 85.67,-85.67 201.74,-133.87 322.86,-134.04l6120.7 -0.01c121.12,0.16 237.27,48.29 322.94,133.95 85.67,85.67 133.8,201.81 133.95,322.94l0 6898.33 539.03 639.3 0 -7537.57c-0.24,-264.05 -105.32,-517.22 -292.06,-703.86 -186.66,-186.74 -439.81,-291.73 -703.86,-292.06l-6120.68 0.01c-264.05,0.32 -517.14,105.32 -703.86,292.06 -186.66,186.74 -291.65,439.89 -291.89,703.86l0 7764.27c0.32,263.97 105.32,517.14 292.06,703.78 186.66,186.66 439.73,291.65 703.72,291.98l3806.05 -0.01 -177.51 -539.03 -3628.57 -0.05z"/>
   </g>
  </g>
 </g>
</svg>
