<?xml version="1.0" encoding="UTF-8"?>
<!DOCTYPE svg PUBLIC "-//W3C//DTD SVG 1.1//EN" "http://www.w3.org/Graphics/SVG/1.1/DTD/svg11.dtd">
<!-- Creator: CorelDRAW 2021 (64 Bit) -->
<svg xmlns="http://www.w3.org/2000/svg" xml:space="preserve" width="123.472mm" height="139.933mm" version="1.1" style="shape-rendering:geometricPrecision; text-rendering:geometricPrecision; image-rendering:optimizeQuality; fill-rule:evenodd; clip-rule:evenodd"
viewBox="0 0 90.86 102.97"
 xmlns:xlink="http://www.w3.org/1999/xlink"
 xmlns:xodm="http://www.corel.com/coreldraw/odm/2003">
 <defs>
  <style type="text/css">
   <![CDATA[
    .fil0 {fill:white;fill-rule:nonzero}
   ]]>
  </style>
 </defs>
 <g id="Camada_x0020_1">
  <metadata id="CorelCorpID_0Corel-Layer"/>
  <g id="_1719172754368">
   <g>
    <path class="fil0" d="M87.83 12.11l-84.8 0c-1.67,0 -3.03,1.36 -3.03,3.03 0,1.67 1.36,3.03 3.03,3.03l9.09 0 0 69.66c0,4.02 1.6,7.87 4.44,10.71 2.84,2.84 6.69,4.44 10.71,4.44l36.34 0c4.02,0 7.87,-1.6 10.71,-4.44 2.84,-2.84 4.44,-6.69 4.44,-10.71l0 -69.66 9.09 0c1.67,0 3.03,-1.36 3.03,-3.03 0,-1.67 -1.36,-3.03 -3.03,-3.03l-0 0zm-15.14 75.72c0,2.41 -0.96,4.72 -2.66,6.43 -1.7,1.7 -4.02,2.66 -6.43,2.66l-36.34 0c-2.41,0 -4.72,-0.96 -6.43,-2.66 -1.7,-1.7 -2.66,-4.02 -2.66,-6.43l0 -69.66 54.52 -0 0 69.66z"/>
    <path class="fil0" d="M33.31 6.06l24.23 0c1.67,0 3.03,-1.36 3.03,-3.03 0,-1.67 -1.36,-3.03 -3.03,-3.03l-24.23 0c-1.67,0 -3.03,1.36 -3.03,3.03 0,1.67 1.36,3.03 3.03,3.03z"/>
    <path class="fil0" d="M36.34 78.74c0.8,0 1.57,-0.32 2.14,-0.89 0.57,-0.57 0.89,-1.34 0.89,-2.14l0 -36.34c0,-1.67 -1.36,-3.03 -3.03,-3.03 -1.67,0 -3.03,1.36 -3.03,3.03l0 36.34c0,0.8 0.32,1.57 0.89,2.14 0.57,0.57 1.34,0.89 2.14,0.89z"/>
    <path class="fil0" d="M54.52 78.74c0.8,0 1.57,-0.32 2.14,-0.89 0.57,-0.57 0.89,-1.34 0.89,-2.14l0 -36.34c0,-1.67 -1.36,-3.03 -3.03,-3.03 -1.67,0 -3.03,1.36 -3.03,3.03l0 36.34c0,0.8 0.32,1.57 0.89,2.14 0.57,0.57 1.34,0.89 2.14,0.89z"/>
   </g>
  </g>
 </g>
</svg>
